# xmcd
#
# Track frame offsets: 
#        150
#        23755
#        44254
#        63840
#        78287
#        97274
#        117499
#        133137
#        148866
#        171978
#        191395
#        211341
#        229806
#        246735
#        267609
#
# Disc length: 3818 seconds
#
# Revision: 0
# Processed by: cddbd v1.5.2PL0 Copyright (c) Steve Scherf et al.
# Submitted via: ExactAudioCopy v0.99pb4
#
DISCID=e60ee80f
DTITLE=รวมศิลบิน - เพลงประกอบละคร ดาวจรัสฟ้า2
DYEAR=2008
DGENRE=Country
TTITLE0=อีสานบ้านเฮา
TTITLE1=เหงาที่ไร้เงาอ้าย
TTITLE2=ฮักที่ต้องจากลา
TTITLE3=รักแท้ก้แพ้ได้
TTITLE4=เสน่ห์อีสาน
TTITLE5=ยอมทนเจ็บคนเดียว
TTITLE6=จำไว้นะ
TTITLE7=ส่งซิกสายตา
TTITLE8=ดาวเปื้อนดิน
TTITLE9=คนดีที่น้องบ่ฮัก
TTITLE10=นางเอกอกหัก
TTITLE11=ขอหอมก่อนแต่ง
TTITLE12=ฮักฮ้ายแล้วเด้อ
TTITLE13=เกือบฮักแฟนเขา
TTITLE14=ออนซอนเด
EXTD=
EXTT0=
EXTT1=
EXTT2=
EXTT3=
EXTT4=
EXTT5=
EXTT6=
EXTT7=
EXTT8=
EXTT9=
EXTT10=
EXTT11=
EXTT12=
EXTT13=
EXTT14=
PLAYORDER=
